{
    "streams": [
        {
            "index": 0,
            "codec_name": "dvvideo",
            "codec_long_name": "DV (Digital Video)",
            "codec_type": "video",
            "codec_time_base": "3745687/112255632",
            "codec_tag_string": "dvc ",
            "codec_tag": "0x20637664",
            "width": 720,
            "height": 480,
            "coded_width": 720,
            "coded_height": 480,
            "has_b_frames": 0,
            "sample_aspect_ratio": "10:11",
            "display_aspect_ratio": "15:11",
            "pix_fmt": "yuv411p",
            "level": -99,
            "color_space": "smpte170m",
            "color_transfer": "bt709",
            "color_primaries": "smpte170m",
            "chroma_location": "topleft",
            "field_order": "bt",
            "refs": 1,
            "r_frame_rate": "2997/100",
            "avg_frame_rate": "112255632/3745687",
            "time_base": "1/2997",
            "start_pts": 0,
            "start_time": "0.000000",
            "duration_ts": 3745600,
            "duration": "1249.783116",
            "bit_rate": "28770531",
            "nb_frames": "37456",
            "disposition": {
                "default": 1,
                "dub": 0,
                "original": 0,
                "comment": 0,
                "lyrics": 0,
                "karaoke": 0,
                "forced": 0,
                "hearing_impaired": 0,
                "visual_impaired": 0,
                "clean_effects": 0,
                "attached_pic": 0,
                "timed_thumbnails": 0
            },
            "tags": {
                "creation_time": "2014-03-17T15:05:28.000000Z",
                "language": "eng",
                "handler_name": "Apple Alias Data Handler",
                "encoder": "DV/DVCPRO - NTSC",
                "timecode": "00:00:32;02"
            }
        },
        {
            "index": 1,
            "codec_name": "pcm_s16le",
            "codec_long_name": "PCM signed 16-bit little-endian",
            "codec_type": "audio",
            "codec_time_base": "1/48000",
            "codec_tag_string": "sowt",
            "codec_tag": "0x74776f73",
            "sample_fmt": "s16",
            "sample_rate": "48000",
            "channels": 1,
            "channel_layout": "mono",
            "bits_per_sample": 16,
            "r_frame_rate": "0/0",
            "avg_frame_rate": "0/0",
            "time_base": "1/48000",
            "start_pts": 0,
            "start_time": "0.000000",
            "duration_ts": 59989590,
            "duration": "1249.783125",
            "bit_rate": "768000",
            "nb_frames": "59989591",
            "disposition": {
                "default": 1,
                "dub": 0,
                "original": 0,
                "comment": 0,
                "lyrics": 0,
                "karaoke": 0,
                "forced": 0,
                "hearing_impaired": 0,
                "visual_impaired": 0,
                "clean_effects": 0,
                "attached_pic": 0,
                "timed_thumbnails": 0
            },
            "tags": {
                "creation_time": "2014-03-17T15:05:28.000000Z",
                "language": "eng",
                "handler_name": "Apple Alias Data Handler"
            }
        },
        {
            "index": 2,
            "codec_name": "pcm_s16le",
            "codec_long_name": "PCM signed 16-bit little-endian",
            "codec_type": "audio",
            "codec_time_base": "1/48000",
            "codec_tag_string": "sowt",
            "codec_tag": "0x74776f73",
            "sample_fmt": "s16",
            "sample_rate": "48000",
            "channels": 1,
            "channel_layout": "mono",
            "bits_per_sample": 16,
            "r_frame_rate": "0/0",
            "avg_frame_rate": "0/0",
            "time_base": "1/48000",
            "start_pts": 0,
            "start_time": "0.000000",
            "duration_ts": 59989590,
            "duration": "1249.783125",
            "bit_rate": "768000",
            "nb_frames": "59989591",
            "disposition": {
                "default": 1,
                "dub": 0,
                "original": 0,
                "comment": 0,
                "lyrics": 0,
                "karaoke": 0,
                "forced": 0,
                "hearing_impaired": 0,
                "visual_impaired": 0,
                "clean_effects": 0,
                "attached_pic": 0,
                "timed_thumbnails": 0
            },
            "tags": {
                "creation_time": "2014-03-17T15:05:28.000000Z",
                "language": "eng",
                "handler_name": "Apple Alias Data Handler"
            }
        },
        {
            "index": 3,
            "codec_type": "data",
            "codec_tag_string": "tmcd",
            "codec_tag": "0x64636d74",
            "r_frame_rate": "0/0",
            "avg_frame_rate": "30/1",
            "time_base": "1/2997",
            "start_pts": 0,
            "start_time": "0.000000",
            "duration_ts": 3745600,
            "duration": "1249.783116",
            "nb_frames": "1",
            "disposition": {
                "default": 1,
                "dub": 0,
                "original": 0,
                "comment": 0,
                "lyrics": 0,
                "karaoke": 0,
                "forced": 0,
                "hearing_impaired": 0,
                "visual_impaired": 0,
                "clean_effects": 0,
                "attached_pic": 0,
                "timed_thumbnails": 0
            },
            "tags": {
                "creation_time": "2014-03-17T15:05:28.000000Z",
                "language": "eng",
                "handler_name": "Apple Alias Data Handler",
                "reel_name": "1001",
                "timecode": "00:00:32;02"
            }
        }
    ],
    "format": {
        "filename": "/Volumes/2TB-WD-Elements/DV Library Backup/Reel 1001/Reel-1001-01.mov",
        "nb_streams": 4,
        "nb_programs": 0,
        "format_name": "mov,mp4,m4a,3gp,3g2,mj2",
        "format_long_name": "QuickTime / MOV",
        "start_time": "0.000000",
        "duration": "1249.783133",
        "size": "4734822615",
        "bit_rate": "30308123",
        "probe_score": 100,
        "tags": {
            "major_brand": "qt  ",
            "minor_version": "537199360",
            "compatible_brands": "qt  ",
            "creation_time": "2014-03-17T15:05:28.000000Z",
            "com.apple.finalcutstudio.media.uuid": "8755DBEB-F893-4D99-832A-7669521EC2CF",
            "timecode": "00:00:32;02"
        }
    }
}
